Format                         : AVI
Format/Info                    : Audio Video Interleave
Format profile                 : OpenDML
File size                      : 5.21 GiB
Duration                       : 2h 1mn
Overall bit rate               : 6 154 Kbps
Writing application            : Lavf52.84.0

Video
ID                             : 0
Format                         : AVC
Format/Info                    : Advanced Video Codec
Format profile                 : Baseline@L3.1
Format settings, CABAC         : No
Format settings, ReFrames      : 2 frames
Format settings, GOP           : M=1, N=13
Codec ID                       : H264
Duration                       : 2h 1mn
Bit rate                       : 6 000 Kbps
Width                          : 852 pixels
Height                         : 480 pixels
Display aspect ratio           : 16:9
Frame rate mode                : Variable
Frame rate                     : 30.000 fps
Color space                    : YUV
Chroma subsampling             : 4:2:0
Bit depth                      : 8 bits
Scan type                      : Progressive
Bits/(Pixel*Frame)             : 0.489
Stream size                    : 5.07 GiB (97%)
Writing library                : x264 core 110
Encoding settings              : cabac=0 / ref=2 / deblock=1:0:0 / analyse=0x1:0 / me=hex / subme=8 / psy=1 / psy_rd=1.00:0.00 / mixed_ref=1 / me_range=16 / chroma_me=0 / trellis=0 / 8x8dct=0 / cqm=0 / deadzone=21,11 / fast_pskip=1 / chroma_qp_offset=-2 / threads=2 / sliced_threads=0 / nr=0 / decimate=1 / interlaced=0 / constrained_intra=0 / bframes=0 / weightp=0 / keyint=13 / keyint_min=7 / scenecut=0 / intra_refresh=0 / rc_lookahead=13 / rc=abr / mbtree=1 / bitrate=6000 / ratetol=1.0 / qcomp=0.00 / qpmin=10 / qpmax=51 / qpstep=4 / ip_ratio=1.41 / aq=1:1.00

Audio
ID                             : 1
Format                         : AC-3
Format/Info                    : Audio Coding 3
Mode extension                 : CM (complete main)
Format settings, Endianness    : Big
Codec ID                       : 2000
Duration                       : 2h 1mn
Bit rate mode                  : Constant
Bit rate                       : 160 Kbps
Channel(s)                     : 2 channels
Channel positions              : Front: L R
Sampling rate                  : 48.0 KHz
Bit depth                      : 16 bits
Compression mode               : Lossy
Stream size                    : 139 MiB (3%)
Alignment                      : Aligned on interleaves
Interleave, duration           : 32 ms (0.96 video frame)
Interleave, preload duration   : 32 ms


